<svg xmlns="http://www.w3.org/2000/svg" width="483" height="107" fill="none" viewBox="0 0 483 107"><line x1="121.5" x2="275.5" y1="56.5" y2="56.5" stroke="url(#paint-1-linear)" stroke-linecap="round" stroke-width="41"/><line x1="20.5" x2="70.5" y1="56.5" y2="56.5" stroke="url(#paint-1-linear)" stroke-linecap="round" stroke-width="41"/><line x1="73.5" x2="127.5" y1="12.5" y2="12.5" stroke="url(#paint-2-linear)" stroke-linecap="round" stroke-width="25"/><line x1="162.5" x2="178.5" y1="12.5" y2="12.5" stroke="url(#paint-3-linear)" stroke-linecap="round" stroke-width="25"/><line x1="213.5" x2="335.5" y1="12.5" y2="12.5" stroke="url(#paint-4-linear)" stroke-linecap="round" stroke-width="25"/><line x1="373.5" x2="375.5" y1="12.5" y2="12.5" stroke="url(#paint-5-linear)" stroke-linecap="round" stroke-width="25"/><line x1="71" x2="169" y1="97" y2="97" stroke="url(#paint-6-linear)" stroke-linecap="round" stroke-width="20"/><line x1="40" x2="43" y1="97" y2="97" stroke="url(#paint-7-linear)" stroke-linecap="round" stroke-width="20"/><line x1="198" x2="351" y1="97" y2="97" stroke="url(#paint-8-linear)" stroke-linecap="round" stroke-width="20"/><line x1="381" x2="393" y1="97" y2="97" stroke="url(#paint-9-linear)" stroke-linecap="round" stroke-width="20"/><line x1="421" x2="433" y1="97" y2="97" stroke="url(#paint-10-linear)" stroke-linecap="round" stroke-width="20"/><line x1="328.5" x2="367.5" y1="56.5" y2="56.5" stroke="url(#paint-11-linear)" stroke-linecap="round" stroke-width="41"/><line x1="423.5" x2="462.5" y1="56.5" y2="56.5" stroke="url(#paint-12-linear)" stroke-linecap="round" stroke-width="41"/><defs><linearGradient id="paint-0-linear" x1="101" x2="451.585" y1="57.5" y2="57.5" gradientUnits="userSpaceOnUse"><stop stop-color="#ccc"/><stop offset="1" stop-color="#333"/></linearGradient><linearGradient id="paint-1-linear" x1="0" x2="609.543" y1="57.509" y2="57.511" gradientUnits="userSpaceOnUse"><stop stop-color="#ccc"/><stop offset="1" stop-color="#333"/></linearGradient><linearGradient id="paint-2-linear" x1="61" x2="390" y1="13" y2="13" gradientUnits="userSpaceOnUse"><stop stop-color="#ccc"/><stop offset="1" stop-color="#333"/></linearGradient><linearGradient id="paint-3-linear" x1="60" x2="390" y1="14" y2="13" gradientUnits="userSpaceOnUse"><stop stop-color="#ccc"/><stop offset="1" stop-color="#333"/></linearGradient><linearGradient id="paint-4-linear" x1="60.5" x2="390" y1="14.5" y2="12.501" gradientUnits="userSpaceOnUse"><stop stop-color="#ccc"/><stop offset="1" stop-color="#333"/></linearGradient><linearGradient id="paint-5-linear" x1="60.5" x2="479" y1="13" y2="14" gradientUnits="userSpaceOnUse"><stop stop-color="#ccc"/><stop offset="1" stop-color="#333"/></linearGradient><linearGradient id="paint-6-linear" x1="61" x2="443" y1="95.001" y2="96.501" gradientUnits="userSpaceOnUse"><stop stop-color="#ccc"/><stop offset="1" stop-color="#333"/></linearGradient><linearGradient id="paint-7-linear" x1="30" x2="104.459" y1="95.001" y2="95.058" gradientUnits="userSpaceOnUse"><stop stop-color="#ccc"/><stop offset="1" stop-color="#333"/></linearGradient><linearGradient id="paint-8-linear" x1="62" x2="443" y1="96.502" y2="98.003" gradientUnits="userSpaceOnUse"><stop stop-color="#ccc"/><stop offset="1" stop-color="#333"/></linearGradient><linearGradient id="paint-9-linear" x1="61" x2="443.5" y1="97.5" y2="96.5" gradientUnits="userSpaceOnUse"><stop stop-color="#ccc"/><stop offset="1" stop-color="#333"/></linearGradient><linearGradient id="paint-10-linear" x1="61.5" x2="443" y1="98.5" y2="98" gradientUnits="userSpaceOnUse"><stop stop-color="#ccc"/><stop offset="1" stop-color="#333"/></linearGradient><linearGradient id="paint-11-linear" x1="61" x2="484" y1="57.999" y2="57.499" gradientUnits="userSpaceOnUse"><stop stop-color="#ccc"/><stop offset="1" stop-color="#333"/></linearGradient><linearGradient id="paint-12-linear" x1="60" x2="483" y1="56.499" y2="55.999" gradientUnits="userSpaceOnUse"><stop stop-color="#ccc"/><stop offset="1" stop-color="#333"/></linearGradient></defs></svg>